<?xml version="1.0" encoding="UTF-8"?>
<!-- Generator: Adobe Illustrator 25.4.1, SVG Export Plug-In . SVG Version: 6.00 Build 0)  -->
<svg version="1.1" id="Layer_1" xmlns="http://www.w3.org/2000/svg" xmlns:xlink="http://www.w3.org/1999/xlink" x="0px" y="0px" width="57px" height="40px" viewBox="0 0 57 40" enable-background="new 0 0 57 40" xml:space="preserve">
<g>
	<polygon id="polygon5" fill="#FFFFFF" points="0.9,26.7 19.6,26.7 19.6,36.1 29,36.1 29,19.1 10.3,19.1 29,0.4 19.6,0.4 0.9,19.1     "/>
	<polygon id="polygon7" fill="#FFFFFF" points="33,9.8 42.3,0.4 33,0.4  "/>
	<polygon id="polygon9" fill="#FFFFFF" points="42.3,9.8 33,19.1 33,28.5 42.3,28.5 42.3,19.1 51.7,9.8 51.7,0.4 42.3,0.4  "/>
	<polygon id="polygon11" fill="#FFFFFF" points="51.7,19.1 42.3,28.5 51.7,28.5  "/>
	<g>
		<path fill="#FFFFFF" d="M39.1,32.7l-0.5,4h1.6l-0.1,1h-2.7l0.6-5L39.1,32.7z"/>
		<path fill="#FFFFFF" d="M41.7,35.4l-1.5-2.7h1.3l0.8,1.5l1.2-1.5H45l-2.1,2.7l-0.3,2.3h-1.2L41.7,35.4z"/>
		<path fill="#FFFFFF" d="M49.4,33.2c0.5,0.5,0.7,1.1,0.7,1.8c0,0.7-0.2,1.5-0.8,2c-0.6,0.6-1.4,0.8-2.1,0.8c-0.6,0-1.3-0.1-1.9-0.7    c-0.5-0.5-0.7-1.1-0.7-1.7c0-0.8,0.3-1.5,0.8-2c0.6-0.6,1.4-0.8,2-0.8C48.5,32.6,49.1,32.9,49.4,33.2z M46.3,34.1    c-0.3,0.3-0.5,0.7-0.5,1.1c0,0.8,0.6,1.4,1.3,1.5c0,0,0.1,0,0.1,0c0.3,0,0.7-0.1,1.1-0.4c0.3-0.3,0.5-0.8,0.5-1.2    c0-0.4-0.1-0.8-0.4-1c-0.3-0.3-0.6-0.4-1-0.4C47.1,33.6,46.6,33.8,46.3,34.1z"/>
		<path fill="#FFFFFF" d="M50.6,37.7l0.6-5h1l2.3,3.2l0.4-3.2h1.1l-0.6,5h-1l-2.3-3.3l-0.4,3.3L50.6,37.7z"/>
	</g>
	<rect x="33" y="30.3" fill="#FFFFFF" width="0.7" height="9.3"/>
</g>
</svg>