<?xml version="1.0" standalone="no"?>
<!DOCTYPE svg PUBLIC "-//W3C//DTD SVG 20010904//EN"
 "http://www.w3.org/TR/2001/REC-SVG-20010904/DTD/svg10.dtd">
<svg version="1.0" xmlns="http://www.w3.org/2000/svg"
 width="800.000000pt" height="800.000000pt" viewBox="0 0 800.000000 800.000000"
 preserveAspectRatio="xMidYMid meet">
<metadata>
Created by potrace 1.14, written by Peter Selinger 2001-2017
</metadata>
<g transform="translate(0.000000,800.000000) scale(0.100000,-0.100000)"
fill="#000000" stroke="none">
<path d="M3140 7650 c-130 -20 -140 -22 -305 -56 -66 -14 -129 -29 -140 -33
-11 -5 -66 -23 -122 -40 -56 -17 -132 -45 -169 -61 -36 -17 -71 -30 -77 -30
-6 0 -18 -7 -28 -16 -9 -8 -23 -16 -31 -18 -33 -5 -288 -157 -332 -198 -11
-10 -23 -18 -27 -18 -4 0 -14 -6 -21 -13 -7 -7 -31 -26 -53 -42 -112 -84 -455
-427 -455 -455 0 -5 -3 -10 -8 -12 -6 -2 -76 -84 -105 -123 -4 -5 -32 -43 -62
-82 -30 -40 -55 -77 -55 -83 0 -5 -4 -10 -8 -10 -4 0 -16 -15 -27 -32 -10 -18
-21 -35 -25 -38 -3 -3 -21 -30 -40 -60 -19 -30 -37 -57 -40 -60 -13 -12 -160
-250 -225 -365 -16 -29 -35 -59 -40 -66 -6 -8 -33 -59 -60 -114 -28 -55 -53
-101 -57 -103 -5 -2 -8 -7 -8 -11 0 -5 -21 -53 -47 -107 -26 -54 -47 -101 -48
-104 -1 -3 -9 -23 -19 -45 -30 -66 -91 -219 -95 -237 -1 -4 -9 -25 -18 -45
-19 -47 -73 -193 -78 -213 -5 -22 -55 -182 -62 -200 -3 -8 -8 -26 -10 -40 -2
-13 -13 -50 -24 -82 -10 -32 -21 -70 -22 -86 -2 -15 -6 -33 -10 -38 -3 -6 -9
-26 -12 -45 -3 -19 -10 -47 -15 -64 -9 -29 -61 -296 -75 -380 -16 -100 -20
-130 -30 -204 -4 -30 -8 -63 -11 -74 -2 -11 -6 -54 -10 -96 -3 -42 -7 -89 -10
-106 -23 -184 -23 -781 1 -925 2 -14 7 -52 10 -85 10 -104 14 -136 19 -153 3
-9 8 -37 11 -62 7 -52 9 -65 18 -100 4 -14 9 -36 12 -50 12 -59 24 -109 45
-175 12 -38 23 -74 24 -80 2 -5 8 -23 14 -38 7 -16 12 -34 12 -42 0 -8 4 -16
9 -19 5 -3 12 -18 15 -32 4 -15 26 -65 48 -113 23 -47 42 -89 42 -93 1 -4 7
-13 13 -19 7 -7 13 -17 13 -21 0 -17 123 -201 182 -273 5 -5 18 -21 29 -35 76
-94 329 -320 357 -320 7 0 12 -4 12 -8 0 -8 94 -66 198 -122 51 -28 270 -126
302 -135 26 -7 128 -39 140 -43 21 -7 19 -7 80 -20 197 -43 273 -51 485 -47
105 2 204 6 220 8 17 3 48 8 70 11 38 5 107 19 150 29 11 3 34 8 50 12 45 10
167 46 190 55 36 15 100 34 108 32 4 -1 7 2 7 7 0 5 12 12 27 16 15 3 53 18
83 33 30 14 57 26 60 26 15 2 186 91 188 98 2 4 8 8 13 8 13 0 173 92 177 102
2 4 8 8 14 8 17 0 281 184 403 282 211 168 344 288 549 494 211 210 268 272
367 400 30 38 56 71 59 74 3 3 30 37 60 75 30 39 59 75 65 81 5 7 35 44 65 83
30 39 58 71 61 71 4 0 16 -37 28 -82 12 -46 26 -99 31 -118 6 -19 24 -87 41
-150 16 -63 33 -122 36 -130 3 -8 8 -21 10 -28 1 -6 5 -18 6 -25 2 -6 6 -19 9
-27 3 -8 20 -62 39 -120 29 -91 54 -160 89 -235 9 -20 41 -95 65 -150 7 -16
22 -51 34 -77 11 -26 21 -50 21 -52 0 -3 14 -36 31 -73 17 -37 43 -93 57 -123
63 -138 171 -351 184 -360 4 -3 14 -21 23 -40 8 -19 38 -69 65 -110 28 -41 53
-83 56 -93 6 -16 50 -17 746 -17 l740 0 -27 33 c-15 17 -41 48 -59 67 -17 19
-76 89 -131 155 -55 66 -106 126 -112 133 -7 7 -13 17 -13 20 0 4 -10 18 -23
32 -40 44 -117 148 -117 158 0 6 -4 12 -8 14 -4 1 -30 35 -57 73 -27 39 -52
72 -55 75 -4 3 -28 41 -54 85 -27 44 -52 82 -57 83 -5 2 -9 7 -9 12 0 4 -24
50 -53 101 -106 188 -287 569 -270 569 3 0 1 6 -4 13 -15 17 -119 328 -138
407 -2 8 -9 35 -15 60 -16 63 -70 296 -80 350 -5 25 -14 65 -20 90 -5 25 -13
56 -16 70 -2 14 -7 33 -10 42 -3 10 -7 30 -10 45 -3 16 -7 35 -9 43 -2 8 -7
29 -10 45 -2 17 -7 41 -10 55 -25 108 -39 207 -51 346 -4 50 -1 64 15 82 10
13 24 36 31 52 7 17 16 30 21 30 5 0 9 5 9 10 0 6 24 48 53 93 73 117 72 115
112 182 19 33 45 76 58 96 39 65 151 258 177 307 14 26 28 49 31 52 6 6 76
130 104 185 11 22 22 42 25 45 3 3 13 21 24 40 10 19 43 82 74 140 30 58 62
119 70 135 9 17 20 33 25 36 5 3 9 9 8 12 0 9 27 66 79 167 24 47 45 87 45 90
1 3 47 97 102 210 55 113 111 228 123 255 29 65 84 184 121 261 16 33 29 63
29 66 0 4 16 41 36 85 19 43 46 103 59 133 13 30 33 77 45 104 11 26 41 96 65
155 70 170 76 184 90 216 7 17 24 59 38 95 14 36 31 79 38 95 7 17 13 35 15
40 1 6 25 66 52 135 27 69 82 213 122 320 39 107 75 202 80 211 5 9 6 20 3 23
-4 3 -286 6 -628 6 l-622 0 -11 -22 c-6 -13 -27 -68 -48 -123 -20 -55 -43
-113 -50 -130 -7 -16 -27 -68 -44 -115 -18 -47 -38 -100 -46 -117 -8 -18 -21
-50 -28 -70 -8 -21 -20 -51 -27 -68 -7 -16 -13 -32 -14 -35 -1 -3 -9 -22 -18
-44 -9 -21 -17 -45 -17 -52 0 -8 -4 -14 -8 -14 -5 0 -9 -6 -9 -12 -1 -14 -145
-357 -228 -543 -102 -229 -195 -427 -204 -435 -3 -3 -8 -14 -9 -25 -2 -11 -8
-21 -13 -23 -5 -2 -9 -8 -9 -14 0 -6 -23 -58 -52 -117 -29 -58 -52 -109 -52
-113 -1 -8 -26 -34 -27 -27 0 2 -2 11 -4 19 -5 20 -18 80 -35 160 -28 131 -40
179 -54 220 -9 25 -24 65 -32 90 -16 43 -142 294 -199 395 -133 235 -369 516
-567 675 -38 29 -68 58 -68 63 0 6 -3 7 -6 4 -4 -4 -23 6 -43 22 -55 43 -169
116 -234 149 -31 17 -64 35 -71 41 -8 7 -24 14 -36 16 -12 2 -27 9 -34 14 -13
11 -182 81 -209 86 -9 2 -22 7 -27 10 -9 6 -157 50 -205 62 -34 8 -108 23
-140 28 -16 3 -41 8 -55 10 -14 3 -43 8 -65 11 -22 2 -58 7 -80 10 -22 3 -119
7 -215 9 -133 3 -203 -1 -290 -15z m535 -1134 c17 -3 46 -9 65 -13 19 -3 37
-7 40 -8 96 -22 370 -138 370 -157 0 -4 5 -8 11 -8 21 0 143 -94 227 -174 192
-184 290 -363 420 -771 54 -166 105 -335 104 -342 0 -2 6 -26 15 -55 8 -29 16
-66 19 -81 2 -16 6 -32 9 -36 2 -4 14 -50 25 -102 12 -52 24 -103 26 -114 7
-27 11 -49 23 -120 6 -33 13 -69 15 -80 2 -11 7 -40 10 -65 3 -25 9 -58 12
-75 3 -16 7 -52 9 -80 2 -27 5 -64 7 -82 3 -26 -6 -45 -46 -102 -28 -38 -58
-79 -66 -91 -8 -12 -35 -48 -60 -80 -25 -32 -52 -68 -60 -80 -8 -12 -23 -32
-32 -44 -10 -11 -79 -100 -154 -196 -75 -96 -146 -187 -158 -201 -12 -14 -32
-40 -46 -59 -14 -18 -30 -38 -36 -44 -6 -6 -26 -32 -46 -57 -19 -26 -41 -54
-49 -63 -21 -24 -28 -34 -94 -115 -33 -41 -69 -84 -80 -96 -42 -45 -75 -87
-75 -96 0 -5 -7 -9 -15 -9 -8 0 -15 -3 -15 -7 0 -33 -395 -436 -606 -620 -354
-307 -736 -520 -1004 -559 -205 -29 -374 -20 -514 27 -265 88 -445 241 -565
480 -18 35 -37 72 -42 82 -11 20 -57 160 -64 191 -2 12 -9 48 -16 81 -6 33
-14 67 -16 75 -5 15 -7 29 -19 165 -9 103 -11 265 -3 301 4 18 3 38 -2 45 -4
7 -5 17 -2 23 4 5 8 32 9 60 3 51 11 131 20 196 8 55 23 153 28 175 2 11 7 40
11 65 4 25 13 70 21 100 7 30 16 71 19 90 3 19 15 73 26 120 11 47 23 96 25
110 12 67 119 443 164 580 100 298 162 443 335 781 5 10 13 19 17 19 5 0 8 5
8 11 0 11 76 138 89 149 3 3 12 17 20 33 8 15 18 27 23 27 4 0 8 7 8 15 0 8 5
15 10 15 6 0 10 6 10 14 0 8 3 16 8 18 4 2 34 37 67 78 91 114 280 299 369
359 12 8 23 18 26 22 4 5 190 132 245 167 26 16 249 126 261 129 5 1 41 13 79
27 75 26 153 45 225 53 25 3 47 7 49 9 6 6 270 -3 306 -10z"/>
</g>
</svg>
