<svg xmlns="http://www.w3.org/2000/svg" xmlns:xlink="http://www.w3.org/1999/xlink" width="500" zoomAndPan="magnify" viewBox="0 0 375 374.999991" height="500" preserveAspectRatio="xMidYMid meet" version="1.0"><path fill="#2b83f7" d="M 281.25 0 L 70.3125 0 C 44.421875 0 23.4375 20.984375 23.4375 46.875 L 23.4375 328.125 C 23.4375 354.015625 44.421875 375 70.3125 375 L 281.25 375 C 307.140625 375 328.125 354.015625 328.125 328.125 L 328.125 46.875 C 328.125 20.984375 307.105469 0 281.25 0 Z M 175.78125 93.75 C 201.671875 93.75 222.65625 114.734375 222.65625 140.625 C 222.65625 166.515625 201.671875 187.5 175.78125 187.5 C 149.898438 187.5 128.90625 166.515625 128.90625 140.625 C 128.90625 114.734375 149.925781 93.75 175.78125 93.75 Z M 246.09375 281.25 L 105.46875 281.25 C 99.023438 281.25 93.75 275.976562 93.75 269.53125 C 93.75 237.15625 119.96875 210.9375 152.34375 210.9375 L 199.21875 210.9375 C 231.578125 210.9375 257.8125 237.171875 257.8125 269.53125 C 257.8125 275.976562 252.539062 281.25 246.09375 281.25 Z M 363.28125 46.875 L 351.5625 46.875 L 351.5625 117.1875 L 363.28125 117.1875 C 369.726562 117.1875 375 111.914062 375 105.46875 L 375 58.59375 C 375 52.117188 369.726562 46.875 363.28125 46.875 Z M 363.28125 140.625 L 351.5625 140.625 L 351.5625 210.9375 L 363.28125 210.9375 C 369.726562 210.9375 375 205.664062 375 199.21875 L 375 152.34375 C 375 145.898438 369.726562 140.625 363.28125 140.625 Z M 363.28125 234.375 L 351.5625 234.375 L 351.5625 304.6875 L 363.28125 304.6875 C 369.753906 304.6875 375 299.441406 375 292.96875 L 375 246.09375 C 375 239.648438 369.726562 234.375 363.28125 234.375 Z M 363.28125 234.375 " fill-opacity="1" fill-rule="nonzero"/></svg>