<svg xmlns="http://www.w3.org/2000/svg" xmlns:xlink="http://www.w3.org/1999/xlink" width="500" zoomAndPan="magnify" viewBox="0 0 375 374.999991" height="500" preserveAspectRatio="xMidYMid meet" version="1.0"><defs><clipPath id="id1"><path d="M 23.523438 0 L 351.273438 0 L 351.273438 375 L 23.523438 375 Z M 23.523438 0 " clip-rule="nonzero"/></clipPath></defs><g clip-path="url(#id1)"><path fill="#2b83f7" d="M 140.578125 58.664062 C 140.578125 82.671875 126.164062 102.65625 105.460938 112.320312 L 105.460938 176.59375 C 119.214844 168.613281 135.234375 164.074219 152.28125 164.074219 L 222.515625 164.074219 C 248.339844 164.074219 269.335938 143.066406 269.335938 117.226562 L 269.335938 112.320312 C 248.632812 102.65625 234.21875 82.671875 234.21875 58.664062 C 234.21875 26.320312 260.410156 0.101562 292.746094 0.101562 C 325.082031 0.101562 351.273438 26.320312 351.273438 58.664062 C 351.273438 82.671875 336.859375 102.65625 316.15625 112.320312 L 316.15625 117.226562 C 316.15625 168.980469 274.238281 210.925781 222.515625 210.925781 L 152.28125 210.925781 C 126.457031 210.925781 105.460938 231.933594 105.460938 257.773438 L 105.460938 262.679688 C 126.164062 271.683594 140.578125 292.328125 140.578125 316.335938 C 140.578125 348.691406 114.386719 374.898438 82.050781 374.898438 C 49.726562 374.898438 23.523438 348.691406 23.523438 316.335938 C 23.523438 292.328125 37.972656 271.683594 58.640625 262.679688 L 58.640625 112.320312 C 37.972656 102.65625 23.523438 82.671875 23.523438 58.664062 C 23.523438 26.320312 49.726562 0.101562 82.050781 0.101562 C 114.386719 0.101562 140.578125 26.320312 140.578125 58.664062 Z M 82.050781 76.230469 C 91.742188 76.230469 99.609375 68.363281 99.609375 58.664062 C 99.609375 48.964844 91.742188 41.09375 82.050781 41.09375 C 72.355469 41.09375 64.492188 48.964844 64.492188 58.664062 C 64.492188 68.363281 72.355469 76.230469 82.050781 76.230469 Z M 292.746094 41.09375 C 283.015625 41.09375 275.1875 48.964844 275.1875 58.664062 C 275.1875 68.363281 283.015625 76.230469 292.746094 76.230469 C 302.476562 76.230469 310.304688 68.363281 310.304688 58.664062 C 310.304688 48.964844 302.476562 41.09375 292.746094 41.09375 Z M 82.050781 333.90625 C 91.742188 333.90625 99.609375 326.074219 99.609375 316.335938 C 99.609375 306.601562 91.742188 298.769531 82.050781 298.769531 C 72.355469 298.769531 64.492188 306.601562 64.492188 316.335938 C 64.492188 326.074219 72.355469 333.90625 82.050781 333.90625 Z M 82.050781 333.90625 " fill-opacity="1" fill-rule="nonzero"/></g></svg>