<svg xmlns="http://www.w3.org/2000/svg" xmlns:xlink="http://www.w3.org/1999/xlink" width="500" zoomAndPan="magnify" viewBox="0 0 375 367.499994" height="490" preserveAspectRatio="xMidYMid meet" version="1.0"><defs><clipPath id="id1"><path d="M 0.253906 0 L 374.746094 0 L 374.746094 366 L 0.253906 366 Z M 0.253906 0 " clip-rule="nonzero"/></clipPath></defs><g clip-path="url(#id1)"><path fill="#000000" d="M 187.5 0.132812 C 84.101562 0.132812 0.253906 83.964844 0.253906 187.375 C 0.253906 270.117188 53.90625 340.304688 128.304688 365.054688 C 137.664062 366.796875 141.101562 360.988281 141.101562 356.042969 C 141.101562 351.582031 140.925781 336.835938 140.84375 321.183594 C 88.753906 332.519531 77.761719 299.09375 77.761719 299.09375 C 69.242188 277.445312 56.96875 271.695312 56.96875 271.695312 C 39.980469 260.082031 58.25 260.316406 58.25 260.316406 C 77.054688 261.632812 86.953125 279.609375 86.953125 279.609375 C 103.65625 308.238281 130.757812 299.957031 141.445312 295.175781 C 143.125 283.078125 147.972656 274.8125 153.328125 270.128906 C 111.742188 265.40625 68.019531 249.34375 68.019531 177.605469 C 68.019531 157.15625 75.335938 140.453125 87.3125 127.339844 C 85.371094 122.621094 78.960938 103.578125 89.128906 77.785156 C 89.128906 77.785156 104.851562 72.753906 140.632812 96.980469 C 155.566406 92.832031 171.585938 90.75 187.5 90.679688 C 203.414062 90.75 219.449219 92.832031 234.414062 96.980469 C 270.152344 72.753906 285.847656 77.785156 285.847656 77.785156 C 296.042969 103.578125 289.636719 122.621094 287.691406 127.339844 C 299.6875 140.453125 306.957031 157.15625 306.957031 177.605469 C 306.957031 249.519531 263.160156 265.347656 221.453125 269.984375 C 228.167969 275.792969 234.164062 287.1875 234.164062 304.667969 C 234.164062 329.710938 233.945312 349.886719 233.945312 356.042969 C 233.945312 361.03125 237.308594 366.867188 246.804688 365.027344 C 321.160156 340.246094 374.746094 270.085938 374.746094 187.375 C 374.746094 83.964844 290.910156 0.132812 187.5 0.132812 Z M 70.386719 266.867188 C 69.972656 267.804688 68.507812 268.082031 67.175781 267.4375 C 65.816406 266.824219 65.054688 265.566406 65.496094 264.628906 C 65.898438 263.664062 67.363281 263.402344 68.71875 264.046875 C 70.082031 264.660156 70.855469 265.933594 70.386719 266.867188 Z M 79.59375 275.089844 C 78.703125 275.910156 76.957031 275.527344 75.773438 274.226562 C 74.546875 272.910156 74.316406 271.167969 75.222656 270.335938 C 76.144531 269.5 77.835938 269.894531 79.066406 271.199219 C 80.289062 272.515625 80.527344 274.253906 79.59375 275.089844 Z M 85.914062 285.609375 C 84.765625 286.398438 82.890625 285.652344 81.730469 283.984375 C 80.585938 282.316406 80.585938 280.328125 81.757812 279.523438 C 82.917969 278.71875 84.765625 279.449219 85.941406 281.101562 C 87.085938 282.785156 87.085938 284.789062 85.914062 285.609375 Z M 96.601562 297.777344 C 95.574219 298.90625 93.386719 298.613281 91.789062 297.0625 C 90.148438 295.554688 89.695312 293.40625 90.726562 292.277344 C 91.761719 291.152344 93.960938 291.457031 95.574219 292.996094 C 97.199219 294.5 97.695312 296.667969 96.601562 297.777344 Z M 110.410156 301.890625 C 109.957031 303.351562 107.851562 304.023438 105.730469 303.394531 C 103.613281 302.765625 102.230469 301.039062 102.65625 299.5625 C 103.097656 298.085938 105.210938 297.382812 107.347656 298.054688 C 109.460938 298.699219 110.851562 300.398438 110.410156 301.890625 Z M 126.128906 303.628906 C 126.179688 305.179688 124.382812 306.453125 122.15625 306.480469 C 119.917969 306.539062 118.105469 305.28125 118.082031 303.761719 C 118.082031 302.210938 119.839844 300.9375 122.078125 300.910156 C 124.304688 300.863281 126.128906 302.09375 126.128906 303.628906 Z M 141.570312 303.042969 C 141.835938 304.550781 140.289062 306.101562 138.078125 306.511719 C 135.90625 306.90625 133.890625 305.96875 133.617188 304.476562 C 133.347656 302.941406 134.921875 301.390625 137.089844 300.996094 C 139.304688 300.601562 141.285156 301.507812 141.570312 303.042969 Z M 141.570312 303.042969 " fill-opacity="1" fill-rule="nonzero"/></g></svg>