<svg xmlns="http://www.w3.org/2000/svg" xmlns:xlink="http://www.w3.org/1999/xlink" width="562" zoomAndPan="magnify" viewBox="0 0 421.5 374.999991" height="500" preserveAspectRatio="xMidYMid meet" version="1.0"><defs><clipPath id="id1"><path d="M 0 0.222656 L 421 0.222656 L 421 374.777344 L 0 374.777344 Z M 0 0.222656 " clip-rule="nonzero"/></clipPath></defs><g clip-path="url(#id1)"><path fill="#ffffff" d="M 422.101562 187.355469 C 422.101562 200.539062 411.105469 210.867188 398.644531 210.867188 L 375.1875 210.867188 L 375.699219 328.128906 C 375.699219 330.179688 375.554688 332.082031 375.332031 334.058594 L 375.332031 345.925781 C 375.332031 362.113281 362.210938 375.222656 346.011719 375.222656 L 334.28125 375.222656 C 333.476562 375.222656 332.667969 374.5625 331.863281 375.148438 C 330.835938 374.5625 329.808594 375.222656 328.78125 375.222656 L 287.363281 375.222656 C 271.164062 375.222656 258.042969 362.113281 258.042969 345.925781 L 258.042969 281.472656 C 258.042969 268.507812 247.558594 258.035156 234.582031 258.035156 L 187.667969 258.035156 C 174.691406 258.035156 164.207031 268.507812 164.207031 281.472656 L 164.207031 345.925781 C 164.207031 362.113281 151.085938 375.222656 134.886719 375.222656 L 93.90625 375.222656 C 92.808594 375.222656 91.707031 375.148438 90.609375 375.074219 C 89.726562 375.148438 88.847656 375.222656 87.96875 375.222656 L 76.238281 375.222656 C 60.046875 375.222656 46.917969 362.113281 46.917969 345.925781 L 46.917969 263.894531 C 46.917969 263.234375 46.9375 262.503906 46.984375 261.84375 L 46.984375 210.867188 L 23.496094 210.867188 C 10.277344 210.867188 0 200.539062 0 187.355469 C 0 180.765625 2.203125 174.90625 7.339844 169.777344 L 195.289062 6.09375 C 200.421875 0.957031 206.285156 0.222656 211.417969 0.222656 C 216.550781 0.222656 222.414062 1.691406 226.886719 5.359375 L 414.039062 169.777344 C 419.902344 174.90625 422.910156 180.765625 422.101562 187.355469 Z M 422.101562 187.355469 " fill-opacity="1" fill-rule="nonzero"/></g></svg>