<svg xmlns="http://www.w3.org/2000/svg" xmlns:xlink="http://www.w3.org/1999/xlink" width="500" zoomAndPan="magnify" viewBox="0 0 375 374.999991" height="500" preserveAspectRatio="xMidYMid meet" version="1.0"><defs><clipPath id="id1"><path d="M 23.523438 23 L 351.273438 23 L 351.273438 352 L 23.523438 352 Z M 23.523438 23 " clip-rule="nonzero"/></clipPath></defs><g clip-path="url(#id1)"><path fill="#2b83f7" d="M 327.863281 23.523438 L 46.859375 23.523438 C 33.984375 23.523438 23.523438 34.140625 23.523438 47.171875 L 23.523438 327.828125 C 23.523438 340.859375 33.984375 351.472656 46.859375 351.472656 L 327.863281 351.472656 C 340.738281 351.472656 351.273438 340.859375 351.273438 327.828125 L 351.273438 47.171875 C 351.273438 34.140625 340.738281 23.527344 327.863281 23.527344 Z M 122.578125 304.625 L 74.003906 304.625 L 74.003906 148.117188 L 122.652344 148.117188 L 122.652344 304.625 Z M 98.289062 126.742188 C 82.707031 126.742188 70.125 114.078125 70.125 98.558594 C 70.125 83.039062 82.707031 70.375 98.289062 70.375 C 113.800781 70.375 126.457031 83.039062 126.457031 98.558594 C 126.457031 114.152344 113.875 126.742188 98.289062 126.742188 Z M 304.671875 304.625 L 256.09375 304.625 L 256.09375 228.492188 C 256.09375 210.339844 255.726562 186.988281 230.855469 186.988281 C 205.539062 186.988281 201.664062 206.753906 201.664062 227.175781 L 201.664062 304.625 L 153.085938 304.625 L 153.085938 148.117188 L 199.6875 148.117188 L 199.6875 169.492188 L 200.347656 169.492188 C 206.859375 157.195312 222.734375 144.238281 246.363281 144.238281 C 295.527344 144.238281 304.671875 176.664062 304.671875 218.832031 Z M 304.671875 304.625 " fill-opacity="1" fill-rule="nonzero"/></g></svg>