<svg xmlns="http://www.w3.org/2000/svg" xmlns:xlink="http://www.w3.org/1999/xlink" width="500" zoomAndPan="magnify" viewBox="0 0 375 299.999988" height="400" preserveAspectRatio="xMidYMid meet" version="1.0"><path fill="#2b83f7" d="M 364.628906 158.847656 L 297.1875 132.472656 C 294.769531 131.519531 289.792969 130.273438 284.148438 132.472656 L 216.679688 158.847656 C 210.351562 161.25 206.25 167.050781 206.25 172.910156 C 206.25 238.300781 246.53125 283.535156 284.121094 298.242188 C 289.761719 300.4375 294.667969 299.195312 297.15625 298.242188 C 327.1875 287.050781 375 246.386719 375 172.910156 C 375 167.050781 370.898438 161.25 364.628906 158.847656 Z M 290.625 270.9375 L 290.625 160.078125 L 346.582031 181.980469 C 343.300781 233.085938 310.898438 261.328125 290.625 270.9375 Z M 131.25 150 C 172.675781 150 206.25 116.417969 206.25 75 C 206.25 33.578125 172.675781 0 131.25 0 C 89.824219 0 56.25 33.578125 56.25 75 C 56.25 116.417969 89.824219 150 131.25 150 Z M 187.851562 181.816406 C 179.238281 179.472656 170.273438 178.125 160.957031 178.125 L 101.542969 178.125 C 45.476562 178.125 0 223.652344 0 279.726562 C 0 290.917969 9.09375 300 20.308594 300 L 242.167969 300 C 244.007812 300 245.664062 299.410156 247.359375 298.953125 C 216.621094 275.273438 189.902344 234.550781 187.851562 181.816406 Z M 187.851562 181.816406 " fill-opacity="1" fill-rule="nonzero"/></svg>