<svg xmlns="http://www.w3.org/2000/svg" xmlns:xlink="http://www.w3.org/1999/xlink" width="562" zoomAndPan="magnify" viewBox="0 0 421.5 374.999991" height="500" preserveAspectRatio="xMidYMid meet" version="1.0"><defs><clipPath id="id1"><path d="M 0 19.121094 L 421 19.121094 L 421 356.621094 L 0 356.621094 Z M 0 19.121094 " clip-rule="nonzero"/></clipPath></defs><g clip-path="url(#id1)"><path fill="#ffffff" d="M 409.839844 197.824219 L 334.035156 168.15625 C 331.320312 167.082031 325.726562 165.679688 319.382812 168.15625 L 243.546875 197.824219 C 236.433594 200.527344 231.824219 207.054688 231.824219 213.644531 C 231.824219 287.210938 277.101562 338.097656 319.351562 354.644531 C 325.6875 357.117188 331.203125 355.714844 334.003906 354.644531 C 367.757812 342.054688 421.496094 296.308594 421.496094 213.644531 C 421.496094 207.054688 416.886719 200.527344 409.839844 197.824219 Z M 326.660156 323.925781 L 326.660156 199.210938 L 389.554688 223.851562 C 385.867188 281.34375 349.449219 313.117188 326.660156 323.925781 Z M 147.527344 187.871094 C 194.085938 187.871094 231.824219 150.09375 231.824219 103.496094 C 231.824219 56.898438 194.085938 19.121094 147.527344 19.121094 C 100.964844 19.121094 63.226562 56.898438 63.226562 103.496094 C 63.226562 150.09375 100.964844 187.871094 147.527344 187.871094 Z M 211.144531 223.664062 C 201.464844 221.027344 191.386719 219.511719 180.917969 219.511719 L 114.136719 219.511719 C 51.117188 219.511719 0.00390625 270.730469 0.00390625 333.816406 C 0.00390625 346.40625 10.222656 356.621094 22.828125 356.621094 L 272.195312 356.621094 C 274.265625 356.621094 276.125 355.960938 278.03125 355.441406 C 243.480469 328.804688 213.449219 282.992188 211.144531 223.664062 Z M 211.144531 223.664062 " fill-opacity="1" fill-rule="nonzero"/></g></svg>