<svg xmlns="http://www.w3.org/2000/svg" xmlns:xlink="http://www.w3.org/1999/xlink" width="400" zoomAndPan="magnify" viewBox="0 0 300 299.999988" height="400" preserveAspectRatio="xMidYMid meet" version="1.0"><path fill="#ffffff" d="M 225 0 L 56.25 0 C 35.539062 0 18.75 16.785156 18.75 37.5 L 18.75 262.5 C 18.75 283.210938 35.539062 300 56.25 300 L 225 300 C 245.710938 300 262.5 283.210938 262.5 262.5 L 262.5 37.5 C 262.5 16.785156 245.683594 0 225 0 Z M 140.625 75 C 161.339844 75 178.125 91.785156 178.125 112.5 C 178.125 133.210938 161.339844 150 140.625 150 C 119.917969 150 103.125 133.210938 103.125 112.5 C 103.125 91.785156 119.941406 75 140.625 75 Z M 196.875 225 L 84.375 225 C 79.21875 225 75 220.78125 75 215.625 C 75 189.726562 95.976562 168.75 121.875 168.75 L 159.375 168.75 C 185.261719 168.75 206.25 189.738281 206.25 215.625 C 206.25 220.78125 202.03125 225 196.875 225 Z M 290.625 37.5 L 281.25 37.5 L 281.25 93.75 L 290.625 93.75 C 295.78125 93.75 300 89.53125 300 84.375 L 300 46.875 C 300 41.695312 295.78125 37.5 290.625 37.5 Z M 290.625 112.5 L 281.25 112.5 L 281.25 168.75 L 290.625 168.75 C 295.78125 168.75 300 164.53125 300 159.375 L 300 121.875 C 300 116.71875 295.78125 112.5 290.625 112.5 Z M 290.625 187.5 L 281.25 187.5 L 281.25 243.75 L 290.625 243.75 C 295.800781 243.75 300 239.550781 300 234.375 L 300 196.875 C 300 191.71875 295.78125 187.5 290.625 187.5 Z M 290.625 187.5 " fill-opacity="1" fill-rule="nonzero"/></svg>