<svg xmlns="http://www.w3.org/2000/svg" xmlns:xlink="http://www.w3.org/1999/xlink" width="562" zoomAndPan="magnify" viewBox="0 0 421.5 374.999991" height="500" preserveAspectRatio="xMidYMid meet" version="1.0"><defs><clipPath id="id1"><path d="M 46 0.222656 L 398.25 0.222656 L 398.25 374.777344 L 46 374.777344 Z M 46 0.222656 " clip-rule="nonzero"/></clipPath></defs><g clip-path="url(#id1)"><path fill="#ffffff" d="M 304.5 0.222656 L 93.5625 0.222656 C 67.671875 0.222656 46.6875 21.207031 46.6875 47.097656 L 46.6875 328.347656 C 46.6875 354.238281 67.671875 375.222656 93.5625 375.222656 L 304.5 375.222656 C 330.390625 375.222656 351.375 354.238281 351.375 328.347656 L 351.375 47.097656 C 351.375 21.207031 330.355469 0.222656 304.5 0.222656 Z M 199.03125 93.972656 C 224.921875 93.972656 245.90625 114.957031 245.90625 140.847656 C 245.90625 166.738281 224.921875 187.722656 199.03125 187.722656 C 173.148438 187.722656 152.15625 166.738281 152.15625 140.847656 C 152.15625 114.957031 173.175781 93.972656 199.03125 93.972656 Z M 269.34375 281.472656 L 128.71875 281.472656 C 122.273438 281.472656 117 276.199219 117 269.753906 C 117 237.378906 143.21875 211.160156 175.59375 211.160156 L 222.46875 211.160156 C 254.828125 211.160156 281.0625 237.394531 281.0625 269.753906 C 281.0625 276.199219 275.789062 281.472656 269.34375 281.472656 Z M 386.53125 47.097656 L 374.8125 47.097656 L 374.8125 117.410156 L 386.53125 117.410156 C 392.976562 117.410156 398.25 112.136719 398.25 105.691406 L 398.25 58.816406 C 398.25 52.339844 392.976562 47.097656 386.53125 47.097656 Z M 386.53125 140.847656 L 374.8125 140.847656 L 374.8125 211.160156 L 386.53125 211.160156 C 392.976562 211.160156 398.25 205.886719 398.25 199.441406 L 398.25 152.566406 C 398.25 146.121094 392.976562 140.847656 386.53125 140.847656 Z M 386.53125 234.597656 L 374.8125 234.597656 L 374.8125 304.910156 L 386.53125 304.910156 C 393.003906 304.910156 398.25 299.664062 398.25 293.191406 L 398.25 246.316406 C 398.25 239.871094 392.976562 234.597656 386.53125 234.597656 Z M 386.53125 234.597656 " fill-opacity="1" fill-rule="nonzero"/></g></svg>