<svg xmlns="http://www.w3.org/2000/svg" xmlns:xlink="http://www.w3.org/1999/xlink" width="500" zoomAndPan="magnify" viewBox="0 0 375 374.999991" height="500" preserveAspectRatio="xMidYMid meet" version="1.0"><defs><clipPath id="id1"><path d="M 1.863281 27.1875 L 374 27.1875 L 374 348.1875 L 1.863281 348.1875 Z M 1.863281 27.1875 " clip-rule="nonzero"/></clipPath></defs><g clip-path="url(#id1)"><path fill="#2b83f7" d="M 292.09375 242.507812 C 288.289062 232.835938 284.5625 222.144531 280.355469 208.890625 L 279.664062 206.71875 L 280.605469 204.660156 C 284.351562 196.546875 288.003906 188.121094 291.460938 179.640625 C 310.457031 133.121094 323.808594 84.578125 333.433594 27.113281 L 274.230469 27.113281 C 269.082031 55.058594 263.109375 80.480469 256.039062 104.753906 L 251.640625 119.734375 L 245.089844 105.558594 C 241.902344 98.695312 238.75 92.503906 235.40625 86.636719 C 214.757812 50.269531 177.800781 28.558594 136.539062 28.558594 C 128.96875 28.558594 121.285156 29.289062 113.679688 30.75 C 73.570312 38.519531 39.609375 68.65625 20.496094 113.484375 C -2.480469 167.449219 -4.34375 228.988281 15.671875 274.105469 C 30.292969 307.070312 55.109375 329.800781 89.417969 341.628906 C 142.703125 359.996094 192.015625 339.6875 235.867188 281.570312 L 241.996094 273.453125 L 246.585938 284.375 C 255.75 305.472656 268.542969 324.4375 286.734375 343.839844 L 373.023438 343.839844 C 338.082031 314.457031 309.957031 288.183594 292.09375 242.507812 Z M 217.292969 202.546875 C 211.625 213.390625 206 223.199219 200.121094 232.546875 C 176.878906 269.453125 151.269531 288.144531 123.996094 288.144531 C 119.480469 288.144531 114.890625 287.609375 110.335938 286.570312 C 65.90625 276.414062 60.605469 233.507812 60.46875 202.121094 C 60.335938 168.753906 70.824219 121.792969 100.828125 99.273438 C 111.988281 90.867188 123.496094 86.617188 135.039062 86.617188 C 157.589844 86.617188 179.277344 103.558594 193.050781 131.90625 C 203.558594 153.542969 211.109375 176.507812 217.714844 198.101562 L 218.425781 200.410156 Z M 217.292969 202.546875 " fill-opacity="1" fill-rule="nonzero"/></g></svg>