<svg xmlns="http://www.w3.org/2000/svg" xmlns:xlink="http://www.w3.org/1999/xlink" width="500" zoomAndPan="magnify" viewBox="0 0 375 374.999991" height="500" preserveAspectRatio="xMidYMid meet" version="1.0"><path fill="#2b83f7" d="M 187.5 0 C 83.933594 0 0 83.933594 0 187.5 C 0 291.0625 83.933594 375 187.5 375 C 291.0625 375 375 291.0625 375 187.5 C 375 83.933594 291.0625 0 187.5 0 Z M 187.5 93.75 C 200.441406 93.75 210.9375 104.246094 210.9375 117.1875 C 210.9375 130.128906 200.441406 140.625 187.5 140.625 C 174.558594 140.625 164.0625 130.152344 164.0625 117.1875 C 164.0625 104.222656 174.535156 93.75 187.5 93.75 Z M 216.796875 281.25 L 158.203125 281.25 C 148.535156 281.25 140.625 273.414062 140.625 263.671875 C 140.625 253.929688 148.5 246.09375 158.203125 246.09375 L 169.921875 246.09375 L 169.921875 199.21875 L 164.0625 199.21875 C 154.359375 199.21875 146.484375 191.34375 146.484375 181.640625 C 146.484375 171.9375 154.394531 164.0625 164.0625 164.0625 L 187.5 164.0625 C 197.203125 164.0625 205.078125 171.9375 205.078125 181.640625 L 205.078125 246.09375 L 216.796875 246.09375 C 226.5 246.09375 234.375 253.96875 234.375 263.671875 C 234.375 273.375 226.539062 281.25 216.796875 281.25 Z M 216.796875 281.25 " fill-opacity="1" fill-rule="nonzero"/></svg>