<svg xmlns="http://www.w3.org/2000/svg" xmlns:xlink="http://www.w3.org/1999/xlink" width="500" zoomAndPan="magnify" viewBox="0 0 375 374.999991" height="500" preserveAspectRatio="xMidYMid meet" version="1.0"><path fill="#2b83f7" d="M 339.84375 46.875 C 359.253906 46.875 375 62.613281 375 82.03125 C 375 93.089844 369.800781 103.492188 360.9375 110.15625 L 201.5625 229.6875 C 193.210938 235.914062 181.785156 235.914062 173.4375 229.6875 L 14.0625 110.15625 C 5.210938 103.492188 0 93.089844 0 82.03125 C 0 62.613281 15.738281 46.875 35.15625 46.875 Z M 159.375 248.4375 C 176.074219 260.960938 198.925781 260.960938 215.625 248.4375 L 375 128.90625 L 375 281.25 C 375 307.105469 353.980469 328.125 328.125 328.125 L 46.875 328.125 C 20.984375 328.125 0 307.105469 0 281.25 L 0 128.90625 Z M 159.375 248.4375 " fill-opacity="1" fill-rule="nonzero"/></svg>