<svg xmlns="http://www.w3.org/2000/svg" xmlns:xlink="http://www.w3.org/1999/xlink" width="500" zoomAndPan="magnify" viewBox="0 0 375 374.999991" height="500" preserveAspectRatio="xMidYMid meet" version="1.0"><defs><clipPath id="id1"><path d="M 46.703125 0 L 327.953125 0 L 327.953125 375 L 46.703125 375 Z M 46.703125 0 " clip-rule="nonzero"/></clipPath></defs><g clip-path="url(#id1)"><path fill="#2b83f7" d="M 234.148438 0 L 234.148438 93.75 L 327.785156 93.75 Z M 210.738281 93.75 L 210.738281 0 L 81.988281 0 C 62.59375 0 46.875 15.738281 46.875 35.15625 L 46.875 339.84375 C 46.875 359.253906 62.59375 375 81.988281 375 L 292.671875 375 C 312.0625 375 327.785156 359.261719 327.785156 339.84375 L 327.785156 117.1875 L 234.804688 117.1875 C 221.199219 117.1875 210.738281 106.714844 210.738281 93.75 Z M 245.851562 304.6875 L 128.804688 304.6875 C 122.367188 304.6875 117.101562 299.414062 117.101562 292.96875 C 117.101562 286.523438 122.367188 281.25 128.804688 281.25 L 245.851562 281.25 C 252.316406 281.25 257.558594 286.496094 257.558594 292.96875 C 257.558594 299.414062 252.289062 304.6875 245.851562 304.6875 Z M 245.851562 257.8125 L 128.804688 257.8125 C 122.367188 257.8125 117.101562 252.539062 117.101562 246.09375 C 117.101562 239.648438 122.367188 234.375 128.804688 234.375 L 245.851562 234.375 C 252.316406 234.375 257.558594 239.621094 257.558594 246.09375 C 257.558594 252.539062 252.289062 257.8125 245.851562 257.8125 Z M 257.558594 199.21875 C 257.558594 205.664062 252.289062 210.9375 245.851562 210.9375 L 128.804688 210.9375 C 122.367188 210.9375 117.101562 205.664062 117.101562 199.21875 C 117.101562 192.773438 122.367188 187.5 128.804688 187.5 L 245.851562 187.5 C 252.289062 187.5 257.558594 192.773438 257.558594 199.21875 Z M 257.558594 199.21875 " fill-opacity="1" fill-rule="nonzero"/></g></svg>