<svg version="1.2" xmlns="http://www.w3.org/2000/svg" viewBox="0 0 1630 495" width="1630" height="495">
	<title>kema_mark</title>
	<style>
		.s0 { fill: #2b83f7 } 
		.s1 { fill: #ffffff } 
	</style>
	<path id="Layer" fill-rule="evenodd" class="s0" d="m1595 494h-68c-14.6-22.1-19-35.7-28.8-57.7-4.9-10.8-12.9-43.4-12.9-43.4l-20.1 25.3c-60.1 66.2-117 89.3-168.9 68.4-33.5-13.4-54.4-39.3-62.1-76.9-10.7-51.6 5.6-122.1 42.6-184 30.9-51.7 74.1-86.4 118.6-95.4 8.4-1.7 16.6-3.3 24.6-3.3 43.9 0 78.2 25.8 91.4 67.8 2.1 6.7 4 13.8 5.7 21.7l3.5 16.3 8.3-17.2c13.4-27.9 24.9-56.4 37.1-88.6h63c-24.2 66.3-49.2 121.2-80.6 174.6-5.7 9.7-11.6 19.4-17.5 28.7l-1.5 2.3 0.2 2.5c1.3 15.2 2.7 27.4 4.4 38.5 7.9 52.2 31.1 86.9 61 120.4zm-111.4-184.3l-0.2-2.7c-1.8-24.7-9.5-68.5-16.3-84.8-9.8-23.6-30.5-38.9-54.2-40.2-19.2-1.1-42.4 9.1-62.1 25.2-35.3 28.8-55.9 84.3-63.6 122.6-7.2 35.9-9.1 89.6 35.5 101.1 4.6 1.2 14.8 1.7 23.2 0 28.3-5.4 73.3-37.9 106.7-80.1 8.4-10.6 20.7-26.3 29.3-38.7z"/>
	<path id="kem" class="s1" aria-label="kem"  d="m80.3 494h-79l78.3-492.8h79l-43.2 269.4h56.7l118.1-147.8h90.5l-144.5 182.2 87.8 189h-87.8l-70.2-156.6h-60.7zm471.1 6.8q-45.9 0-76.9-17.6-31.1-18.2-44.6-50.6-13.5-33.1-6.7-76.3l14.8-95.8q7.4-43.2 31.1-75.7 24.3-33 60.7-50.6 37.1-18.2 83-18.2 46.6 0 77.7 18.2 31 17.6 44.5 50.6 13.5 32.5 6.1 75.7l-10.1 66.8h-227.5l-4.7 29q-6.1 39.8 9.4 60.8 16.2 20.9 54 20.9 30.4 0 50-10.8 19.5-10.8 27.6-30.4h77.7q-10.8 31.1-35.1 54.7-23.7 23.6-57.4 36.4-33.8 12.9-73.6 12.9zm117.5-225.5l-6.8 6.1 3.4-20.9q6.1-39.9-9.5-60.8-14.8-21.6-52.6-21.6-37.8 0-60.8 21.6-22.2 21.6-28.3 60.8l-2.7 15.5zm193.7 218.7h-70.2l58.7-371.3h65.5l-8.1 48.6h14.2l-12.8 13.5q5.4-31.7 24.9-49.9 20.3-18.9 48-18.9 30.3 0 43.2 24.3 12.8 23.6 6 64.8l-10.1-33.8h24.3l-12.1 13.5q5.4-31.7 25.6-49.9 20.3-18.9 49.3-18.9 34.4 0 49.9 26.3 16.2 25.7 9.5 68.9l-45.2 282.8h-69.6l43.9-280.1q3.4-19.6-3.4-30.4-6.7-10.8-22.9-10.8-15.5 0-26.3 10.8-10.2 10.1-13.5 29.7l-44.6 280.8h-58l44.5-280.1q3.4-20.3-4-30.4-6.8-10.8-23-10.8-16.2 0-26.3 10.8-10.1 10.1-12.8 29.7z"/>
</svg>