<svg version="1.2" xmlns="http://www.w3.org/2000/svg" viewBox="0 0 1630 495" width="1630" height="495">
	<title>kema_logo</title>
	<style>
		tspan { white-space:pre } 
		.s0 { fill: #2b83f7 } 
		.t1 { font-size: 675px;fill: #000000;font-weight: 600;font-style: italic;font-family: "JetBrainsMono-SemiBoldItalic", "JetBrains Mono" } 
	</style>
	<path id="Layer" fill-rule="evenodd" class="s0" d="m1595 494h-68c-14.6-22.1-19-35.7-28.8-57.7-4.9-10.8-12.9-43.4-12.9-43.4l-20.1 25.3c-60.1 66.2-117 89.3-168.9 68.4-33.5-13.4-54.4-39.3-62.1-76.9-10.7-51.6 5.6-122.1 42.6-184 30.9-51.7 74.1-86.4 118.6-95.4 8.4-1.7 16.6-3.3 24.6-3.3 43.9 0 78.2 25.8 91.4 67.8 2.1 6.7 4 13.8 5.7 21.7l3.5 16.3 8.3-17.2c13.4-27.9 24.9-56.4 37.1-88.6h63c-24.2 66.3-49.2 121.2-80.6 174.6-5.7 9.7-11.6 19.4-17.5 28.7l-1.5 2.3 0.2 2.5c1.3 15.2 2.7 27.4 4.4 38.5 7.9 52.2 31.1 86.9 61 120.4zm-111.4-184.3l-0.2-2.7c-1.8-24.7-9.5-68.5-16.3-84.8-9.8-23.6-30.5-38.9-54.2-40.2-19.2-1.1-42.4 9.1-62.1 25.2-35.3 28.8-55.9 84.3-63.6 122.6-7.2 35.9-9.1 89.6 35.5 101.1 4.6 1.2 14.8 1.7 23.2 0 28.3-5.4 73.3-37.9 106.7-80.1 8.4-10.6 20.7-26.3 29.3-38.7z"/>
	<text id="kem" style="transform: matrix(1,0,0,1,-25.013,494)" >
		<tspan x="0" y="0" class="t1">k</tspan><tspan  y="0" class="t1">e</tspan><tspan  y="0" class="t1">m
</tspan>
	</text>
</svg>