<svg version="1.2" xmlns="http://www.w3.org/2000/svg" viewBox="0 0 1900 1753" width="1900" height="1753">
	<title>kema_logo</title>
	<style>
		.s0 { fill: #2b83f7 } 
	</style>
	<path id="Layer" fill-rule="evenodd" class="s0" d="m1755 1739.2h-346.8c-68.5-103.9-89.1-168.1-135.5-271.4-22.9-51-60.7-204-60.7-204l-94.5 118.9c-282.8 311.5-550.1 420.2-794.4 321.9-157.3-63.3-255.7-185.1-292.2-362-50.2-242.5-2.9-611.1 171.2-902.6 145.1-242.8 277-369.2 486.3-411.4 39.7-8 77.9-15.6 115.8-15.6 206.3 0 395.7 101.1 502.9 296.3 20.2 36.7 46.4 87.7 54.5 124.8l16.7 76.7 38.9-81c62.8-131.5 117.2-265.1 174.7-416.8h296.1c-113.8 311.7-231.4 570.2-378.9 821.3-26.9 45.8-54.6 91.2-82.4 134.9l-7.1 11.1 1 11.7c6 71.3 24.3 132.6 34.6 184.3 49.7 250.8 159.6 405.5 299.8 562.9zm-548.1-891.5l-1-12.4c-8.6-116.5-60-287.3-91.9-364-46.2-111-155.3-183.6-266.7-189.8-90.4-5.1-175.1 33.1-267.9 108.6-166.1 135.4-232.9 391.7-269.1 571.6-33.9 169-39.2 415.4 170.5 469.9 21.5 5.6 69.5 7.6 108.9 0 133.6-25.6 293.1-166.7 450-365 39.7-50.3 118.7-149 159.1-207.4z"/>
</svg>