<svg xmlns="http://www.w3.org/2000/svg" xmlns:xlink="http://www.w3.org/1999/xlink" width="500" zoomAndPan="magnify" viewBox="0 0 375 374.999991" height="500" preserveAspectRatio="xMidYMid meet" version="1.0"><defs><g/></defs><g fill="#2b83f7" fill-opacity="1"><g transform="translate(-9.340299, 235.611167)"><g><path d="M 63.859375 17.171875 C 54.691406 17.171875 47.816406 14.90625 43.234375 10.375 C 38.660156 5.851562 37.257812 -0.519531 39.03125 -8.75 L 44.65625 -34.34375 C 45.800781 -39.863281 45.59375 -43.84375 44.03125 -46.28125 C 42.46875 -48.726562 38.300781 -49.953125 31.53125 -49.953125 L 14.359375 -49.953125 L 16.234375 -62.453125 L 33.40625 -62.453125 C 40.175781 -62.453125 44.753906 -63.671875 47.140625 -66.109375 C 49.535156 -68.554688 50.992188 -72.539062 51.515625 -78.0625 L 54.015625 -103.671875 C 54.847656 -111.890625 58.253906 -118.257812 64.234375 -122.78125 C 70.222656 -127.3125 77.800781 -129.578125 86.96875 -129.578125 L 93.984375 -129.578125 L 92.109375 -117.09375 L 85.09375 -117.09375 C 80.195312 -117.09375 76.265625 -115.972656 73.296875 -113.734375 C 70.328125 -111.492188 68.585938 -108.140625 68.078125 -103.671875 L 65.578125 -78.0625 C 64.953125 -72.125 62.945312 -67.226562 59.5625 -63.375 C 56.175781 -59.53125 51.832031 -57.140625 46.53125 -56.203125 C 51.519531 -55.265625 55.109375 -52.84375 57.296875 -48.9375 C 59.484375 -45.039062 59.953125 -40.175781 58.703125 -34.34375 L 53.078125 -8.75 C 52.140625 -4.269531 52.789062 -0.910156 55.03125 1.328125 C 57.269531 3.566406 60.835938 4.6875 65.734375 4.6875 L 72.75 4.6875 L 70.875 17.171875 Z M 63.859375 17.171875 "/></g></g></g><g fill="#000000" fill-opacity="1"><g transform="translate(66.921307, 215.361175)"><g><path d="M 3.609375 0 L 15.25 -73.234375 L 27.796875 -73.234375 L 21.46875 -33.515625 L 29.5 -33.515625 L 46.359375 -55.1875 L 60.703125 -55.1875 L 39.734375 -27.984375 L 52.265625 0 L 38.421875 0 L 28.5 -22.875 L 19.765625 -22.875 L 16.15625 0 Z M 3.609375 0 "/></g></g></g><g fill="#000000" fill-opacity="1"><g transform="translate(127.115865, 215.361175)"><g><path d="M 25.578125 1 C 18.554688 1 13.289062 -0.96875 9.78125 -4.90625 C 6.269531 -8.851562 5.015625 -14.109375 6.015625 -20.671875 L 8.234375 -34.515625 C 8.960938 -38.859375 10.515625 -42.648438 12.890625 -45.890625 C 15.265625 -49.140625 18.320312 -51.664062 22.0625 -53.46875 C 25.8125 -55.28125 30.03125 -56.1875 34.71875 -56.1875 C 41.664062 -56.1875 46.894531 -54.210938 50.40625 -50.265625 C 53.925781 -46.316406 55.148438 -41.066406 54.078125 -34.515625 L 52.46875 -24.578125 L 18.765625 -24.578125 L 18.0625 -20.671875 C 16.851562 -12.835938 19.929688 -8.921875 27.296875 -8.921875 C 32.910156 -8.921875 36.519531 -10.828125 38.125 -14.640625 L 50.5625 -14.640625 C 48.894531 -9.898438 45.785156 -6.109375 41.234375 -3.265625 C 36.679688 -0.421875 31.460938 1 25.578125 1 Z M 20.265625 -34.515625 L 19.96875 -32.40625 L 41.734375 -32.5 L 42.03125 -34.609375 C 42.632812 -38.421875 42.203125 -41.347656 40.734375 -43.390625 C 39.265625 -45.429688 36.722656 -46.453125 33.109375 -46.453125 C 29.492188 -46.453125 26.597656 -45.414062 24.421875 -43.34375 C 22.253906 -41.269531 20.867188 -38.328125 20.265625 -34.515625 Z M 20.265625 -34.515625 "/></g></g></g><g fill="#000000" fill-opacity="1"><g transform="translate(187.310422, 215.361175)"><g><path d="M 0.796875 0 L 9.53125 -55.1875 L 19.765625 -55.1875 L 18.5625 -47.75 L 19.15625 -47.75 C 19.894531 -50.289062 21.164062 -52.332031 22.96875 -53.875 C 24.78125 -55.414062 26.921875 -56.1875 29.390625 -56.1875 C 31.734375 -56.1875 33.585938 -55.429688 34.953125 -53.921875 C 36.328125 -52.421875 37.082031 -50.363281 37.21875 -47.75 L 37.71875 -47.75 C 38.457031 -50.289062 39.78125 -52.332031 41.6875 -53.875 C 43.59375 -55.414062 45.816406 -56.1875 48.359375 -56.1875 C 51.703125 -56.1875 54.175781 -54.878906 55.78125 -52.265625 C 57.382812 -49.660156 57.882812 -46.25 57.28125 -42.03125 L 50.671875 0 L 39.625 0 L 46.046875 -41.140625 C 46.648438 -45.015625 45.414062 -46.953125 42.34375 -46.953125 C 39.195312 -46.953125 37.320312 -45.015625 36.71875 -41.140625 L 30.203125 0 L 21.171875 0 L 27.59375 -41.140625 C 28.257812 -45.015625 26.988281 -46.953125 23.78125 -46.953125 C 20.695312 -46.953125 18.859375 -45.015625 18.265625 -41.140625 L 11.84375 0 Z M 0.796875 0 "/></g></g></g><g fill="#2b83f7" fill-opacity="1"><g transform="translate(286.118803, 235.611167)"><g><path d="M 3.75 17.171875 L 5.625 4.6875 L 12.640625 4.6875 C 17.535156 4.6875 21.492188 3.566406 24.515625 1.328125 C 27.535156 -0.910156 29.25 -4.269531 29.65625 -8.75 L 32.15625 -34.34375 C 32.675781 -40.28125 34.65625 -45.195312 38.09375 -49.09375 C 41.53125 -53 45.898438 -55.367188 51.203125 -56.203125 C 46.210938 -57.140625 42.625 -59.53125 40.4375 -63.375 C 38.25 -67.226562 37.78125 -72.125 39.03125 -78.0625 L 44.65625 -103.671875 C 45.59375 -108.140625 44.941406 -111.492188 42.703125 -113.734375 C 40.460938 -115.972656 36.894531 -117.09375 32 -117.09375 L 24.984375 -117.09375 L 26.859375 -129.578125 L 33.875 -129.578125 C 43.144531 -129.578125 50.039062 -127.3125 54.5625 -122.78125 C 59.09375 -118.257812 60.472656 -111.890625 58.703125 -103.671875 L 53.078125 -78.0625 C 51.929688 -72.539062 52.140625 -68.554688 53.703125 -66.109375 C 55.265625 -63.671875 59.429688 -62.453125 66.203125 -62.453125 L 83.375 -62.453125 L 81.5 -49.953125 L 64.328125 -49.953125 C 57.660156 -49.953125 53.101562 -48.726562 50.65625 -46.28125 C 48.21875 -43.84375 46.738281 -39.863281 46.21875 -34.34375 L 43.71875 -8.75 C 42.882812 -0.519531 39.5 5.851562 33.5625 10.375 C 27.632812 14.90625 20.035156 17.171875 10.765625 17.171875 Z M 3.75 17.171875 "/></g></g></g><g fill="#000000" fill-opacity="1"><g transform="translate(247.546923, 215.361175)"><g><path d="M 20.875 1 C 15.320312 1 11.191406 -0.882812 8.484375 -4.65625 C 5.773438 -8.4375 4.953125 -13.570312 6.015625 -20.0625 L 8.328125 -35.015625 C 9.398438 -41.503906 11.890625 -46.65625 15.796875 -50.46875 C 19.710938 -54.28125 24.445312 -56.1875 30 -56.1875 C 34.082031 -56.1875 37.242188 -55.164062 39.484375 -53.125 C 41.722656 -51.082031 42.804688 -48.253906 42.734375 -44.640625 L 42.9375 -44.640625 L 44.34375 -55.1875 L 56.890625 -55.1875 L 48.15625 0 L 35.8125 0 L 37.515625 -10.53125 L 37.328125 -10.53125 C 36.179688 -6.851562 34.15625 -4.007812 31.25 -2 C 28.34375 0 24.882812 1 20.875 1 Z M 27.09375 -9.828125 C 30.226562 -9.828125 32.832031 -10.78125 34.90625 -12.6875 C 36.988281 -14.59375 38.296875 -17.253906 38.828125 -20.671875 L 41.03125 -34.515625 C 41.570312 -37.921875 41.085938 -40.578125 39.578125 -42.484375 C 38.078125 -44.390625 35.753906 -45.34375 32.609375 -45.34375 C 29.398438 -45.34375 26.773438 -44.40625 24.734375 -42.53125 C 22.691406 -40.664062 21.40625 -37.992188 20.875 -34.515625 L 18.65625 -20.671875 C 18.125 -17.191406 18.578125 -14.515625 20.015625 -12.640625 C 21.453125 -10.765625 23.8125 -9.828125 27.09375 -9.828125 Z M 27.09375 -9.828125 "/></g></g></g></svg>