<svg xmlns="http://www.w3.org/2000/svg" xmlns:xlink="http://www.w3.org/1999/xlink" width="500" zoomAndPan="magnify" viewBox="0 0 375 374.999991" height="500" preserveAspectRatio="xMidYMid meet" version="1.0"><defs><g/><clipPath id="id1"><path d="M 277.238281 159.007812 L 374.996094 159.007812 L 374.996094 243.007812 L 277.238281 243.007812 Z M 277.238281 159.007812 " clip-rule="nonzero"/></clipPath></defs><g fill="#ffffff" fill-opacity="1"><g transform="translate(0.0000045, 241.499984)"><g><path d="M 5.40625 0 L 22.796875 -109.5 L 41.546875 -109.5 L 32.09375 -50.09375 L 44.09375 -50.09375 L 69.296875 -82.5 L 90.75 -82.5 L 59.40625 -41.84375 L 78.15625 0 L 57.453125 0 L 42.59375 -34.203125 L 29.546875 -34.203125 L 24.15625 0 Z M 5.40625 0 "/></g></g></g><g fill="#ffffff" fill-opacity="1"><g transform="translate(90.000022, 241.499984)"><g><path d="M 38.25 1.5 C 27.75 1.5 19.875 -1.445312 14.625 -7.34375 C 9.375 -13.25 7.5 -21.101562 9 -30.90625 L 12.296875 -51.59375 C 13.398438 -58.09375 15.722656 -63.769531 19.265625 -68.625 C 22.816406 -73.476562 27.394531 -77.253906 33 -79.953125 C 38.601562 -82.648438 44.90625 -84 51.90625 -84 C 62.300781 -84 70.125 -81.046875 75.375 -75.140625 C 80.625 -69.242188 82.445312 -61.394531 80.84375 -51.59375 L 78.453125 -36.75 L 28.046875 -36.75 L 27 -30.90625 C 25.195312 -19.195312 29.796875 -13.34375 40.796875 -13.34375 C 49.203125 -13.34375 54.601562 -16.195312 57 -21.90625 L 75.59375 -21.90625 C 73.09375 -14.800781 68.441406 -9.125 61.640625 -4.875 C 54.847656 -0.625 47.050781 1.5 38.25 1.5 Z M 30.296875 -51.59375 L 29.84375 -48.453125 L 62.40625 -48.59375 L 62.84375 -51.75 C 63.75 -57.445312 63.097656 -61.820312 60.890625 -64.875 C 58.691406 -67.925781 54.894531 -69.453125 49.5 -69.453125 C 44.101562 -69.453125 39.78125 -67.898438 36.53125 -64.796875 C 33.28125 -61.703125 31.203125 -57.300781 30.296875 -51.59375 Z M 30.296875 -51.59375 "/></g></g></g><g fill="#ffffff" fill-opacity="1"><g transform="translate(180.000039, 241.499984)"><g><path d="M 1.203125 0 L 14.25 -82.5 L 29.546875 -82.5 L 27.75 -71.40625 L 28.65625 -71.40625 C 29.75 -75.195312 31.644531 -78.242188 34.34375 -80.546875 C 37.050781 -82.847656 40.253906 -84 43.953125 -84 C 47.453125 -84 50.222656 -82.875 52.265625 -80.625 C 54.316406 -78.375 55.445312 -75.300781 55.65625 -71.40625 L 56.40625 -71.40625 C 57.5 -75.195312 59.46875 -78.242188 62.3125 -80.546875 C 65.164062 -82.847656 68.492188 -84 72.296875 -84 C 77.296875 -84 80.992188 -82.046875 83.390625 -78.140625 C 85.796875 -74.242188 86.550781 -69.144531 85.65625 -62.84375 L 75.75 0 L 59.25 0 L 68.84375 -61.5 C 69.75 -67.300781 67.898438 -70.203125 63.296875 -70.203125 C 58.597656 -70.203125 55.800781 -67.300781 54.90625 -61.5 L 45.15625 0 L 31.65625 0 L 41.25 -61.5 C 42.25 -67.300781 40.347656 -70.203125 35.546875 -70.203125 C 30.953125 -70.203125 28.203125 -67.300781 27.296875 -61.5 L 17.703125 0 Z M 1.203125 0 "/></g></g></g><g clip-path="url(#id1)"><path fill="#2b83f7" d="M 353.273438 215.355469 C 352.277344 212.824219 351.300781 210.027344 350.199219 206.558594 L 350.019531 205.988281 L 350.265625 205.449219 C 351.246094 203.328125 352.203125 201.121094 353.109375 198.902344 C 358.085938 186.730469 361.582031 174.027344 364.105469 158.988281 L 348.59375 158.988281 C 347.246094 166.300781 345.679688 172.957031 343.828125 179.308594 L 342.675781 183.226562 L 340.960938 179.519531 C 340.125 177.722656 339.296875 176.101562 338.421875 174.566406 C 333.011719 165.050781 323.332031 159.367188 312.519531 159.367188 C 310.539062 159.367188 308.523438 159.558594 306.53125 159.941406 C 296.023438 161.972656 287.125 169.859375 282.117188 181.589844 C 276.097656 195.714844 275.609375 211.816406 280.855469 223.625 C 284.683594 232.25 291.1875 238.199219 300.175781 241.292969 C 314.136719 246.097656 327.054688 240.785156 338.542969 225.578125 L 340.148438 223.453125 L 341.351562 226.3125 C 343.753906 231.832031 347.105469 236.792969 351.871094 241.871094 L 374.476562 241.871094 C 365.324219 234.183594 357.953125 227.308594 353.273438 215.355469 Z M 333.675781 204.898438 C 332.191406 207.734375 330.71875 210.300781 329.179688 212.75 C 323.089844 222.40625 316.378906 227.296875 309.234375 227.296875 C 308.050781 227.296875 306.847656 227.15625 305.65625 226.886719 C 294.015625 224.226562 292.625 213 292.589844 204.785156 C 292.554688 196.054688 295.304688 183.765625 303.164062 177.871094 C 306.089844 175.671875 309.101562 174.5625 312.128906 174.5625 C 318.035156 174.5625 323.71875 178.996094 327.328125 186.414062 C 330.078125 192.074219 332.058594 198.082031 333.789062 203.734375 L 333.972656 204.339844 Z M 333.675781 204.898438 " fill-opacity="1" fill-rule="nonzero"/></g></svg>