<svg version="1.2" xmlns="http://www.w3.org/2000/svg" viewBox="0 0 400 369" width="400" height="369">
	<title>kema_logo(1)</title>
	<style>
		.s0 { fill: #2b83f7 } 
	</style>
	<path id="Layer" fill-rule="evenodd" class="s0" d="m370.7 368h-73.7c-14.6-22.1-19-35.7-28.8-57.7-4.9-10.8-12.9-43.4-12.9-43.4l-20.1 25.3c-60.1 66.2-117 89.3-168.9 68.4-33.5-13.4-54.4-39.3-62.1-76.9-10.7-51.6-0.6-129.9 36.4-191.9 30.8-51.6 58.9-78.5 103.4-87.5 8.4-1.7 16.5-3.3 24.6-3.3 43.8 0 84.1 21.5 106.9 63 4.3 7.8 9.9 18.6 11.6 26.5l3.5 16.3 8.3-17.2c13.4-27.9 24.9-56.4 37.1-88.6h63c-24.2 66.3-49.2 121.2-80.6 174.6-5.7 9.7-11.6 19.4-17.5 28.7l-1.5 2.3 0.2 2.5c1.3 15.2 5.2 28.2 7.4 39.2 10.5 53.3 33.9 86.2 63.7 119.7zm-116.5-189.5l-0.2-2.7c-1.9-24.7-12.8-61.1-19.6-77.4-9.8-23.6-33-39-56.7-40.3-19.2-1.1-37.2 7-56.9 23.1-35.3 28.8-49.5 83.3-57.2 121.5-7.2 35.9-8.4 88.3 36.2 99.9 4.6 1.2 14.8 1.6 23.2 0 28.4-5.4 62.3-35.4 95.6-77.6 8.5-10.7 25.3-31.7 33.9-44.1z"/>
</svg>