<svg xmlns="http://www.w3.org/2000/svg" xmlns:xlink="http://www.w3.org/1999/xlink" width="400" zoomAndPan="magnify" viewBox="0 0 300 299.999988" height="400" preserveAspectRatio="xMidYMid meet" version="1.0"><path fill="#000000" d="M 114 4.382812 L 117.375 18.023438 C 104.023438 21.308594 91.460938 26.503906 79.6875 33.609375 L 72.46875 21.5625 C 85.441406 13.730469 99.285156 8.003906 114 4.382812 Z M 186 4.382812 L 182.625 18.023438 C 195.976562 21.308594 208.539062 26.503906 220.3125 33.609375 L 227.578125 21.5625 C 214.589844 13.726562 200.730469 8 186 4.382812 Z M 21.5625 72.46875 C 13.730469 85.441406 8.003906 99.285156 4.382812 114 L 18.023438 117.375 C 21.308594 104.023438 26.503906 91.460938 33.609375 79.6875 Z M 14.0625 150 C 14.058594 143.171875 14.566406 136.382812 15.585938 129.632812 L 1.6875 127.523438 C -0.574219 142.507812 -0.574219 157.492188 1.6875 172.476562 L 15.585938 170.367188 C 14.566406 163.617188 14.058594 156.828125 14.0625 150 Z M 227.53125 278.4375 L 220.3125 266.390625 C 208.554688 273.492188 196.007812 278.6875 182.671875 281.976562 L 186.046875 295.617188 C 200.746094 291.992188 214.574219 286.265625 227.53125 278.4375 Z M 285.9375 150 C 285.941406 156.828125 285.433594 163.617188 284.414062 170.367188 L 298.3125 172.476562 C 300.574219 157.492188 300.574219 142.507812 298.3125 127.523438 L 284.414062 129.632812 C 285.433594 136.382812 285.941406 143.171875 285.9375 150 Z M 295.617188 186 L 281.976562 182.625 C 278.691406 195.976562 273.496094 208.539062 266.390625 220.3125 L 278.4375 227.578125 C 286.273438 214.589844 292 200.730469 295.617188 186 Z M 170.367188 284.4375 C 156.789062 286.480469 143.210938 286.480469 129.632812 284.4375 L 127.523438 298.335938 C 142.507812 300.597656 157.492188 300.597656 172.476562 298.335938 Z M 259.429688 230.648438 C 251.277344 241.691406 241.675781 251.285156 230.625 259.429688 L 238.96875 270.75 C 251.15625 261.789062 261.75 251.226562 270.75 239.0625 Z M 230.625 40.570312 C 241.675781 48.722656 251.277344 58.324219 259.429688 69.375 L 270.75 60.9375 C 261.78125 48.78125 251.21875 38.21875 239.0625 29.25 Z M 40.570312 69.375 C 48.722656 58.324219 58.324219 48.722656 69.375 40.570312 L 60.9375 29.25 C 48.78125 38.21875 38.21875 48.78125 29.25 60.9375 Z M 278.4375 72.46875 L 266.390625 79.6875 C 273.492188 91.445312 278.6875 103.992188 281.976562 117.328125 L 295.617188 113.953125 C 291.992188 99.253906 286.265625 85.425781 278.4375 72.46875 Z M 129.632812 15.585938 C 143.210938 13.542969 156.789062 13.542969 170.367188 15.585938 L 172.476562 1.6875 C 157.492188 -0.574219 142.507812 -0.574219 127.523438 1.6875 Z M 47.789062 274.476562 L 18.75 281.25 L 25.523438 252.210938 L 11.835938 249 L 5.0625 278.039062 C 4.925781 278.617188 4.828125 279.207031 4.765625 279.796875 C 4.707031 280.390625 4.683594 280.984375 4.695312 281.582031 C 4.710938 282.175781 4.761719 282.769531 4.851562 283.355469 C 4.941406 283.945312 5.066406 284.527344 5.230469 285.101562 C 5.394531 285.671875 5.59375 286.234375 5.828125 286.78125 C 6.0625 287.328125 6.332031 287.859375 6.632812 288.375 C 6.933594 288.886719 7.269531 289.378906 7.632812 289.851562 C 7.996094 290.320312 8.390625 290.769531 8.8125 291.1875 C 9.230469 291.609375 9.679688 292.003906 10.148438 292.367188 C 10.621094 292.730469 11.113281 293.066406 11.625 293.367188 C 12.140625 293.667969 12.671875 293.9375 13.21875 294.171875 C 13.765625 294.40625 14.328125 294.605469 14.898438 294.769531 C 15.472656 294.933594 16.054688 295.058594 16.644531 295.148438 C 17.230469 295.238281 17.824219 295.289062 18.417969 295.304688 C 19.015625 295.316406 19.609375 295.292969 20.203125 295.234375 C 20.792969 295.171875 21.378906 295.074219 21.960938 294.9375 L 50.976562 288.28125 Z M 14.765625 236.460938 L 28.453125 239.648438 L 33.140625 219.515625 C 26.269531 207.96875 21.230469 195.671875 18.023438 182.625 L 4.382812 186 C 7.453125 198.480469 12.0625 210.363281 18.210938 221.648438 Z M 80.390625 266.929688 L 60.257812 271.617188 L 63.445312 285.304688 L 78.257812 281.859375 C 89.542969 288.007812 101.425781 292.617188 113.90625 295.6875 L 117.28125 282.046875 C 104.261719 278.800781 91.996094 273.730469 80.484375 266.835938 Z M 150 28.125 C 147.292969 28.125 144.589844 28.21875 141.886719 28.398438 C 139.1875 28.582031 136.496094 28.851562 133.8125 29.214844 C 131.128906 29.574219 128.464844 30.023438 125.808594 30.5625 C 123.15625 31.101562 120.527344 31.726562 117.914062 32.441406 C 115.304688 33.15625 112.71875 33.957031 110.160156 34.84375 C 107.605469 35.726562 105.078125 36.699219 102.585938 37.753906 C 100.09375 38.808594 97.636719 39.945312 95.21875 41.160156 C 92.804688 42.378906 90.429688 43.675781 88.097656 45.054688 C 85.765625 46.429688 83.484375 47.882812 81.25 49.410156 C 79.015625 50.9375 76.835938 52.539062 74.707031 54.210938 C 72.582031 55.886719 70.511719 57.628906 68.5 59.441406 C 66.488281 61.253906 64.539062 63.128906 62.652344 65.070312 C 60.765625 67.011719 58.949219 69.011719 57.195312 71.074219 C 55.441406 73.136719 53.757812 75.257812 52.148438 77.433594 C 50.535156 79.605469 49 81.832031 47.535156 84.109375 C 46.070312 86.386719 44.6875 88.710938 43.378906 91.078125 C 42.070312 93.449219 40.839844 95.859375 39.691406 98.3125 C 38.542969 100.761719 37.480469 103.25 36.496094 105.769531 C 35.515625 108.292969 34.617188 110.847656 33.804688 113.429688 C 32.992188 116.011719 32.265625 118.617188 31.628906 121.246094 C 30.988281 123.878906 30.441406 126.527344 29.976562 129.191406 C 29.515625 131.859375 29.140625 134.539062 28.859375 137.230469 C 28.574219 139.921875 28.382812 142.621094 28.277344 145.328125 C 28.175781 148.03125 28.160156 150.738281 28.238281 153.441406 C 28.3125 156.148438 28.480469 158.847656 28.734375 161.542969 C 28.992188 164.238281 29.339844 166.921875 29.773438 169.59375 C 30.207031 172.265625 30.730469 174.917969 31.34375 177.554688 C 31.957031 180.191406 32.65625 182.804688 33.441406 185.394531 C 34.226562 187.984375 35.097656 190.546875 36.054688 193.078125 C 37.011719 195.613281 38.050781 198.109375 39.175781 200.570312 C 40.300781 203.035156 41.503906 205.457031 42.789062 207.839844 C 44.070312 210.222656 45.433594 212.558594 46.875 214.851562 L 35.15625 264.84375 L 85.148438 253.125 C 87.140625 254.378906 89.164062 255.574219 91.222656 256.710938 C 93.28125 257.847656 95.375 258.921875 97.496094 259.9375 C 99.617188 260.953125 101.765625 261.90625 103.941406 262.796875 C 106.121094 263.6875 108.320312 264.515625 110.546875 265.277344 C 112.769531 266.039062 115.015625 266.738281 117.28125 267.371094 C 119.546875 268.007812 121.828125 268.574219 124.125 269.074219 C 126.421875 269.574219 128.734375 270.011719 131.058594 270.378906 C 133.378906 270.746094 135.710938 271.046875 138.054688 271.277344 C 140.394531 271.511719 142.738281 271.675781 145.089844 271.773438 C 147.441406 271.867188 149.789062 271.898438 152.140625 271.859375 C 154.496094 271.820312 156.84375 271.710938 159.1875 271.535156 C 161.535156 271.359375 163.871094 271.117188 166.203125 270.804688 C 168.535156 270.496094 170.855469 270.117188 173.164062 269.671875 C 175.476562 269.226562 177.769531 268.714844 180.050781 268.136719 C 182.332031 267.558594 184.589844 266.917969 186.835938 266.207031 C 189.078125 265.5 191.296875 264.726562 193.496094 263.886719 C 195.695312 263.050781 197.867188 262.148438 200.011719 261.1875 C 202.15625 260.222656 204.273438 259.199219 206.359375 258.113281 C 208.445312 257.027344 210.5 255.882812 212.519531 254.675781 C 214.539062 253.472656 216.523438 252.210938 218.472656 250.890625 C 220.417969 249.570312 222.324219 248.195312 224.191406 246.765625 C 226.0625 245.335938 227.886719 243.855469 229.667969 242.316406 C 231.449219 240.78125 233.183594 239.195312 234.875 237.5625 C 236.5625 235.925781 238.207031 234.242188 239.796875 232.511719 C 241.390625 230.777344 242.929688 229.003906 244.421875 227.183594 C 245.910156 225.363281 247.347656 223.5 248.726562 221.597656 C 250.109375 219.691406 251.433594 217.75 252.703125 215.769531 C 253.972656 213.792969 255.183594 211.777344 256.335938 209.726562 C 257.492188 207.675781 258.582031 205.59375 259.613281 203.480469 C 260.648438 201.367188 261.617188 199.222656 262.523438 197.054688 C 263.433594 194.886719 264.277344 192.691406 265.058594 190.472656 C 265.839844 188.253906 266.554688 186.015625 267.207031 183.753906 C 267.859375 181.492188 268.445312 179.214844 268.964844 176.921875 C 269.484375 174.628906 269.9375 172.320312 270.324219 170 C 270.707031 167.679688 271.027344 165.351562 271.277344 163.011719 C 271.53125 160.675781 271.714844 158.328125 271.828125 155.980469 C 271.945312 153.632812 271.992188 151.28125 271.96875 148.929688 C 271.949219 146.578125 271.859375 144.226562 271.703125 141.878906 C 271.546875 139.535156 271.324219 137.191406 271.03125 134.859375 C 270.738281 132.523438 270.378906 130.203125 269.953125 127.886719 C 269.527344 125.574219 269.03125 123.277344 268.472656 120.992188 C 267.914062 118.707031 267.289062 116.441406 266.597656 114.191406 C 265.90625 111.945312 265.148438 109.71875 264.328125 107.511719 C 263.511719 105.308594 262.625 103.128906 261.679688 100.976562 C 260.734375 98.824219 259.726562 96.699219 258.65625 94.601562 C 257.589844 92.507812 256.460938 90.445312 255.269531 88.417969 C 254.082031 86.386719 252.835938 84.394531 251.53125 82.433594 C 250.230469 80.476562 248.867188 78.558594 247.453125 76.679688 C 246.039062 74.800781 244.570312 72.964844 243.050781 71.171875 C 241.527344 69.378906 239.957031 67.628906 238.332031 65.925781 C 236.710938 64.222656 235.039062 62.570312 233.320312 60.960938 C 231.605469 59.355469 229.839844 57.800781 228.03125 56.296875 C 226.222656 54.792969 224.371094 53.34375 222.480469 51.945312 C 220.589844 50.550781 218.65625 49.207031 216.6875 47.921875 C 214.71875 46.636719 212.710938 45.410156 210.671875 44.242188 C 208.628906 43.074219 206.554688 41.964844 204.449219 40.914062 C 202.34375 39.867188 200.210938 38.878906 198.050781 37.953125 C 195.886719 37.027344 193.699219 36.164062 191.488281 35.367188 C 189.273438 34.570312 187.039062 33.835938 184.785156 33.164062 C 182.53125 32.496094 180.257812 31.890625 177.96875 31.355469 C 175.679688 30.816406 173.375 30.34375 171.058594 29.941406 C 168.742188 29.535156 166.414062 29.199219 164.078125 28.929688 C 161.742188 28.660156 159.398438 28.457031 157.050781 28.324219 C 154.703125 28.1875 152.351562 28.125 150 28.125 Z M 150 28.125 " fill-opacity="1" fill-rule="nonzero"/></svg>